<svg xmlns="http://www.w3.org/2000/svg" viewBox="0 0 512 512">
  <!-- Background -->
  <rect width="512" height="512" fill="#0f0f23"/>

  <!-- Gradient Background -->
  <defs>
    <linearGradient id="bgGradient" x1="0%" y1="0%" x2="100%" y2="100%">
      <stop offset="0%" style="stop-color:#1abc9c;stop-opacity:0.15" />
      <stop offset="100%" style="stop-color:#1abc9c;stop-opacity:0.05" />
    </linearGradient>
    <linearGradient id="qrGradient" x1="0%" y1="0%" x2="100%" y2="100%">
      <stop offset="0%" style="stop-color:#1abc9c;stop-opacity:1" />
      <stop offset="100%" style="stop-color:#16a085;stop-opacity:1" />
    </linearGradient>
  </defs>

  <rect width="512" height="512" fill="url(#bgGradient)" rx="80"/>

  <!-- Main QR Code Grid -->
  <g transform="translate(120, 120)">
    <!-- Finder Pattern - Top Left -->
    <rect x="0" y="0" width="20" height="20" fill="url(#qrGradient)"/>
    <rect x="28" y="0" width="20" height="20" fill="url(#qrGradient)"/>
    <rect x="56" y="0" width="20" height="20" fill="url(#qrGradient)"/>
    <rect x="84" y="0" width="20" height="20" fill="url(#qrGradient)"/>
    <rect x="112" y="0" width="20" height="20" fill="url(#qrGradient)"/>

    <rect x="0" y="28" width="20" height="20" fill="url(#qrGradient)"/>
    <rect x="84" y="28" width="20" height="20" fill="url(#qrGradient)"/>
    <rect x="112" y="28" width="20" height="20" fill="url(#qrGradient)"/>

    <rect x="0" y="56" width="20" height="20" fill="url(#qrGradient)"/>
    <rect x="28" y="56" width="20" height="20" fill="url(#qrGradient)"/>
    <rect x="56" y="56" width="20" height="20" fill="url(#qrGradient)"/>
    <rect x="84" y="56" width="20" height="20" fill="url(#qrGradient)"/>
    <rect x="112" y="56" width="20" height="20" fill="url(#qrGradient)"/>

    <rect x="0" y="84" width="20" height="20" fill="url(#qrGradient)"/>
    <rect x="84" y="84" width="20" height="20" fill="url(#qrGradient)"/>
    <rect x="112" y="84" width="20" height="20" fill="url(#qrGradient)"/>

    <rect x="0" y="112" width="20" height="20" fill="url(#qrGradient)"/>
    <rect x="28" y="112" width="20" height="20" fill="url(#qrGradient)"/>
    <rect x="56" y="112" width="20" height="20" fill="url(#qrGradient)"/>
    <rect x="84" y="112" width="20" height="20" fill="url(#qrGradient)"/>
    <rect x="112" y="112" width="20" height="20" fill="url(#qrGradient)"/>

    <!-- Finder Pattern - Top Right -->
    <rect x="180" y="0" width="20" height="20" fill="url(#qrGradient)"/>
    <rect x="208" y="0" width="20" height="20" fill="url(#qrGradient)"/>
    <rect x="236" y="0" width="20" height="20" fill="url(#qrGradient)"/>

    <rect x="180" y="28" width="20" height="20" fill="url(#qrGradient)"/>
    <rect x="236" y="28" width="20" height="20" fill="url(#qrGradient)"/>

    <rect x="180" y="56" width="20" height="20" fill="url(#qrGradient)"/>
    <rect x="208" y="56" width="20" height="20" fill="url(#qrGradient)"/>
    <rect x="236" y="56" width="20" height="20" fill="url(#qrGradient)"/>

    <rect x="180" y="84" width="20" height="20" fill="url(#qrGradient)"/>
    <rect x="236" y="84" width="20" height="20" fill="url(#qrGradient)"/>

    <rect x="180" y="112" width="20" height="20" fill="url(#qrGradient)"/>
    <rect x="208" y="112" width="20" height="20" fill="url(#qrGradient)"/>
    <rect x="236" y="112" width="20" height="20" fill="url(#qrGradient)"/>

    <!-- Finder Pattern - Bottom Left -->
    <rect x="0" y="180" width="20" height="20" fill="url(#qrGradient)"/>
    <rect x="28" y="180" width="20" height="20" fill="url(#qrGradient)"/>
    <rect x="56" y="180" width="20" height="20" fill="url(#qrGradient)"/>

    <rect x="0" y="208" width="20" height="20" fill="url(#qrGradient)"/>
    <rect x="56" y="208" width="20" height="20" fill="url(#qrGradient)"/>

    <rect x="0" y="236" width="20" height="20" fill="url(#qrGradient)"/>
    <rect x="28" y="236" width="20" height="20" fill="url(#qrGradient)"/>
    <rect x="56" y="236" width="20" height="20" fill="url(#qrGradient)"/>

    <!-- Timing Pattern -->
    <rect x="140" y="56" width="20" height="20" fill="url(#qrGradient)"/>
    <rect x="168" y="56" width="20" height="20" fill="url(#qrGradient)"/>
    <rect x="56" y="140" width="20" height="20" fill="url(#qrGradient)"/>
    <rect x="56" y="168" width="20" height="20" fill="url(#qrGradient)"/>

    <!-- Data Pattern -->
    <rect x="140" y="84" width="20" height="20" fill="url(#qrGradient)"/>
    <rect x="168" y="84" width="20" height="20" fill="url(#qrGradient)"/>
    <rect x="140" y="112" width="20" height="20" fill="url(#qrGradient)"/>
    <rect x="140" y="140" width="20" height="20" fill="url(#qrGradient)"/>
    <rect x="168" y="140" width="20" height="20" fill="url(#qrGradient)"/>
    <rect x="84" y="140" width="20" height="20" fill="url(#qrGradient)"/>
    <rect x="112" y="140" width="20" height="20" fill="url(#qrGradient)"/>
    <rect x="84" y="168" width="20" height="20" fill="url(#qrGradient)"/>
    <rect x="112" y="168" width="20" height="20" fill="url(#qrGradient)"/>
    <rect x="140" y="168" width="20" height="20" fill="url(#qrGradient)"/>
    <rect x="196" y="140" width="20" height="20" fill="url(#qrGradient)"/>
    <rect x="224" y="140" width="20" height="20" fill="url(#qrGradient)"/>
    <rect x="196" y="168" width="20" height="20" fill="url(#qrGradient)"/>
  </g>

  <!-- Decorative Elements - Corner Accents -->
  <circle cx="50" cy="50" r="30" fill="none" stroke="url(#qrGradient)" stroke-width="3" opacity="0.3"/>
  <circle cx="462" cy="50" r="30" fill="none" stroke="url(#qrGradient)" stroke-width="3" opacity="0.3"/>
  <circle cx="50" cy="462" r="30" fill="none" stroke="url(#qrGradient)" stroke-width="3" opacity="0.3"/>

  <!-- Border -->
  <rect x="0" y="0" width="512" height="512" fill="none" stroke="url(#qrGradient)" stroke-width="4" rx="80"/>
</svg>
